# xmcd
#
# Track frame offsets:
#	150
#	19950
#	41548
#	65398
#	89888
#	113230
#	134232
#	150257
#	166933
#	188841
#	206009
#	217492
#	239337
#	246599
#	258829
#	277797
#	294443
#	308813
#	327395
#	339607
#
# Disc length: 4777 seconds
#
# Revision: 1
# Processed by: cddbd v1.5.2PL0 Copyright (c) Steve Scherf et al.
# Submitted via: EZCDAudioConverter 6.0.0.1
#
DISCID=3812a714
DTITLE=Various Artist - Akella Presents - vol.68 - Russia-Blues  CD2
DYEAR=2016
DGENRE=Blues
TTITLE0=Кроссроудз - Правда
TTITLE1=Пять Пенсов - Дом-2
TTITLE2=Дикий Мед - Господи, дай им силы любить!
TTITLE3=Лига Блюза - Развяжи мне руки
TTITLE4=Асанбай - Купил ботинки
TTITLE5=Ксения Федулова - Не повезло
TTITLE6=Шанхай - Подруга номер пять
TTITLE7=Денис Мажуков - Давно ли это Было
TTITLE8=Мадера Хард Блюз - Посвящается Маше
TTITLE9=Евгений Маргулис - Соль мажор
TTITLE10=МакSим - Одиночка
TTITLE11=Чиж and Co - Пароль
TTITLE12=Машина Времени - Я рядом с тобой
TTITLE13=Цех Экспериментального Блюза - Ты все оставил как есть
TTITLE14=НикаДим - Дыши
TTITLE15=Ксения Федулова - Халигарх-буги
TTITLE16=Машина Времени - Всегда одинок
TTITLE17=Константин Никольский - Пред чертой
TTITLE18=Евгений Маргулис - Телега
TTITLE19=Дикий Мед - Умереть до утра
EXTD=
EXTT0=
EXTT1=
EXTT2=
EXTT3=
EXTT4=
EXTT5=
EXTT6=
EXTT7=
EXTT8=
EXTT9=
EXTT10=
EXTT11=
EXTT12=
EXTT13=
EXTT14=
EXTT15=
EXTT16=
EXTT17=
EXTT18=
EXTT19=
PLAYORDER=
